<mxfile host="65bd71144e" modified="2021-01-10T17:40:20.686Z" agent="5.0 (Windows NT 10.0; Win64; x64) AppleWebKit/537.36 (KHTML, like Gecko) Code/1.52.0 Chrome/83.0.4103.122 Electron/9.3.5 Safari/537.36" etag="4hDV4gxFu4yc9kIK19y6" version="13.10.0" type="embed">
    <diagram name="Page-1" id="6133507b-19e7-1e82-6fc7-422aa6c4b21f">
        <mxGraphModel dx="690" dy="303" grid="0" gridSize="10" guides="1" tooltips="1" connect="1" arrows="1" fold="1" page="1" pageScale="1" pageWidth="1100" pageHeight="850" background="none" math="0" shadow="0">
            <root>
                <mxCell id="0"/>
                <mxCell id="1" parent="0"/>
                <mxCell id="235556782a83e6d0-1" value="&lt;font size=&quot;1&quot;&gt;&lt;span style=&quot;font-weight: normal&quot;&gt;&lt;i&gt;&amp;lt;&amp;lt;enum&amp;gt;&amp;gt;&lt;/i&gt;&lt;/span&gt;&lt;/font&gt;&lt;br style=&quot;font-size: 10px&quot;&gt;UserType" style="swimlane;html=1;fontStyle=1;align=center;verticalAlign=top;childLayout=stackLayout;horizontal=1;startSize=44;horizontalStack=0;resizeParent=1;resizeLast=0;collapsible=1;marginBottom=0;swimlaneFillColor=#ffffff;rounded=0;shadow=0;comic=0;labelBackgroundColor=none;strokeWidth=1;fillColor=none;fontFamily=Verdana;fontSize=12" parent="1" vertex="1">
                    <mxGeometry x="40" y="236" width="160" height="104" as="geometry"/>
                </mxCell>
                <mxCell id="235556782a83e6d0-3" value="Normal" style="text;html=1;strokeColor=none;fillColor=none;align=left;verticalAlign=top;spacingLeft=4;spacingRight=4;whiteSpace=wrap;overflow=hidden;rotatable=0;points=[[0,0.5],[1,0.5]];portConstraint=eastwest;" parent="235556782a83e6d0-1" vertex="1">
                    <mxGeometry y="44" width="160" height="26" as="geometry"/>
                </mxCell>
                <mxCell id="-D7Ul4uRxF27-zXFRVxn-1" value="Scheduler" style="text;html=1;strokeColor=none;fillColor=none;align=left;verticalAlign=top;spacingLeft=4;spacingRight=4;whiteSpace=wrap;overflow=hidden;rotatable=0;points=[[0,0.5],[1,0.5]];portConstraint=eastwest;" parent="235556782a83e6d0-1" vertex="1">
                    <mxGeometry y="70" width="160" height="26" as="geometry"/>
                </mxCell>
                <mxCell id="b94bc138ca980ef-11" style="edgeStyle=orthogonalEdgeStyle;rounded=0;html=1;labelBackgroundColor=none;startArrow=none;startFill=0;startSize=8;endArrow=block;endFill=0;endSize=16;fontFamily=Verdana;fontSize=12;entryX=0.5;entryY=1;entryDx=0;entryDy=0;" parent="1" source="78961159f06e98e8-108" target="b94bc138ca980ef-1" edge="1">
                    <mxGeometry relative="1" as="geometry">
                        <Array as="points">
                            <mxPoint x="385" y="430"/>
                            <mxPoint x="385" y="430"/>
                        </Array>
                    </mxGeometry>
                </mxCell>
                <mxCell id="78961159f06e98e8-108" value="User" style="swimlane;html=1;fontStyle=1;align=center;verticalAlign=top;childLayout=stackLayout;horizontal=1;startSize=26;horizontalStack=0;resizeParent=1;resizeLast=0;collapsible=1;marginBottom=0;swimlaneFillColor=#ffffff;rounded=0;shadow=0;comic=0;labelBackgroundColor=none;strokeWidth=1;fillColor=none;fontFamily=Verdana;fontSize=12" parent="1" vertex="1">
                    <mxGeometry x="305" y="480" width="160" height="245" as="geometry"/>
                </mxCell>
                <mxCell id="78961159f06e98e8-109" value="+ name: &lt;b&gt;Name&lt;/b&gt;" style="text;html=1;strokeColor=none;fillColor=none;align=left;verticalAlign=top;spacingLeft=4;spacingRight=4;whiteSpace=wrap;overflow=hidden;rotatable=0;points=[[0,0.5],[1,0.5]];portConstraint=eastwest;" parent="78961159f06e98e8-108" vertex="1">
                    <mxGeometry y="26" width="160" height="26" as="geometry"/>
                </mxCell>
                <mxCell id="78961159f06e98e8-110" value="+ emailId: string" style="text;html=1;strokeColor=none;fillColor=none;align=left;verticalAlign=top;spacingLeft=4;spacingRight=4;whiteSpace=wrap;overflow=hidden;rotatable=0;points=[[0,0.5],[1,0.5]];portConstraint=eastwest;" parent="78961159f06e98e8-108" vertex="1">
                    <mxGeometry y="52" width="160" height="26" as="geometry"/>
                </mxCell>
                <mxCell id="-D7Ul4uRxF27-zXFRVxn-5" value="+ contactNumber: &lt;b&gt;Phone&lt;/b&gt;" style="text;html=1;strokeColor=none;fillColor=none;align=left;verticalAlign=top;spacingLeft=4;spacingRight=4;whiteSpace=wrap;overflow=hidden;rotatable=0;points=[[0,0.5],[1,0.5]];portConstraint=eastwest;" parent="78961159f06e98e8-108" vertex="1">
                    <mxGeometry y="78" width="160" height="26" as="geometry"/>
                </mxCell>
                <mxCell id="-D7Ul4uRxF27-zXFRVxn-6" value="+ addresses: &lt;b&gt;Address&lt;/b&gt;" style="text;html=1;strokeColor=none;fillColor=none;align=left;verticalAlign=top;spacingLeft=4;spacingRight=4;whiteSpace=wrap;overflow=hidden;rotatable=0;points=[[0,0.5],[1,0.5]];portConstraint=eastwest;" parent="78961159f06e98e8-108" vertex="1">
                    <mxGeometry y="104" width="160" height="26" as="geometry"/>
                </mxCell>
                <mxCell id="-D7Ul4uRxF27-zXFRVxn-7" value="+ pictureUrl: string" style="text;html=1;strokeColor=none;fillColor=none;align=left;verticalAlign=top;spacingLeft=4;spacingRight=4;whiteSpace=wrap;overflow=hidden;rotatable=0;points=[[0,0.5],[1,0.5]];portConstraint=eastwest;" parent="78961159f06e98e8-108" vertex="1">
                    <mxGeometry y="130" width="160" height="26" as="geometry"/>
                </mxCell>
                <mxCell id="-D7Ul4uRxF27-zXFRVxn-14" value="+ dateOfJoining: DateTime" style="text;html=1;strokeColor=none;fillColor=none;align=left;verticalAlign=top;spacingLeft=4;spacingRight=4;whiteSpace=wrap;overflow=hidden;rotatable=0;points=[[0,0.5],[1,0.5]];portConstraint=eastwest;" parent="78961159f06e98e8-108" vertex="1">
                    <mxGeometry y="156" width="160" height="26" as="geometry"/>
                </mxCell>
                <mxCell id="-D7Ul4uRxF27-zXFRVxn-15" value="+ dateOfBirth?: DateTime" style="text;html=1;strokeColor=none;fillColor=none;align=left;verticalAlign=top;spacingLeft=4;spacingRight=4;whiteSpace=wrap;overflow=hidden;rotatable=0;points=[[0,0.5],[1,0.5]];portConstraint=eastwest;" parent="78961159f06e98e8-108" vertex="1">
                    <mxGeometry y="182" width="160" height="26" as="geometry"/>
                </mxCell>
                <mxCell id="b94bc138ca980ef-1" value="&lt;p style=&quot;margin: 0px ; margin-top: 4px ; text-align: center&quot;&gt;&lt;i&gt;&amp;lt;&amp;lt;Interface&amp;gt;&amp;gt;&lt;/i&gt;&lt;br&gt;&lt;b&gt;IUser&lt;/b&gt;&lt;/p&gt;&lt;hr size=&quot;1&quot;&gt;&lt;p style=&quot;margin: 0px ; margin-left: 4px&quot;&gt;+ Id: guid&lt;br&gt;+ userType:&amp;nbsp; &lt;b&gt;UserType&lt;/b&gt;&lt;/p&gt;&lt;p style=&quot;margin: 0px ; margin-left: 4px&quot;&gt;+ isActive :&amp;nbsp; &amp;nbsp;boolean&lt;br&gt;+ createdAt: timestamp&lt;/p&gt;&lt;p style=&quot;margin: 0px ; margin-left: 4px&quot;&gt;+ updatedAt: timestamp&lt;/p&gt;&lt;hr size=&quot;1&quot;&gt;&lt;p style=&quot;margin: 0px ; margin-left: 4px&quot;&gt;+ add(): guid&lt;br&gt;+ activate(Id:guid): boolean&lt;/p&gt;" style="verticalAlign=top;align=left;overflow=fill;fontSize=12;fontFamily=Helvetica;html=1;rounded=0;shadow=0;comic=0;labelBackgroundColor=none;strokeWidth=1" parent="1" vertex="1">
                    <mxGeometry x="290" y="200" width="190" height="180" as="geometry"/>
                </mxCell>
                <mxCell id="-D7Ul4uRxF27-zXFRVxn-3" value="" style="endArrow=none;dashed=1;html=1;entryX=0.001;entryY=0.449;entryDx=0;entryDy=0;entryPerimeter=0;exitX=1;exitY=0.25;exitDx=0;exitDy=0;startArrow=open;startFill=0;rounded=0;endSize=6;startSize=12;" parent="1" source="235556782a83e6d0-1" target="b94bc138ca980ef-1" edge="1">
                    <mxGeometry width="50" height="50" relative="1" as="geometry">
                        <mxPoint x="280" y="470" as="sourcePoint"/>
                        <mxPoint x="330" y="420" as="targetPoint"/>
                    </mxGeometry>
                </mxCell>
                <mxCell id="-D7Ul4uRxF27-zXFRVxn-16" value="&lt;font style=&quot;font-size: 12px&quot;&gt;Name&lt;/font&gt;" style="swimlane;html=1;fontStyle=1;align=center;verticalAlign=top;childLayout=stackLayout;horizontal=1;startSize=30;horizontalStack=0;resizeParent=1;resizeLast=0;collapsible=1;marginBottom=0;swimlaneFillColor=#ffffff;rounded=0;shadow=0;comic=0;labelBackgroundColor=none;strokeWidth=1;fillColor=none;fontFamily=Verdana;fontSize=12" parent="1" vertex="1">
                    <mxGeometry x="570" y="480" width="160" height="104" as="geometry"/>
                </mxCell>
                <mxCell id="-D7Ul4uRxF27-zXFRVxn-17" value="+ firstName : string&lt;br&gt;+ middleName? : string&lt;br&gt;+ lastName? : string&lt;br&gt;+ salutation : &lt;b&gt;Salutation&lt;/b&gt;" style="text;html=1;strokeColor=none;fillColor=none;align=left;verticalAlign=top;spacingLeft=4;spacingRight=4;whiteSpace=wrap;overflow=hidden;rotatable=0;points=[[0,0.5],[1,0.5]];portConstraint=eastwest;" parent="-D7Ul4uRxF27-zXFRVxn-16" vertex="1">
                    <mxGeometry y="30" width="160" height="70" as="geometry"/>
                </mxCell>
                <mxCell id="-D7Ul4uRxF27-zXFRVxn-19" value="&lt;font size=&quot;1&quot;&gt;&lt;span style=&quot;font-weight: normal&quot;&gt;&lt;i&gt;&amp;lt;&amp;lt;enum&amp;gt;&amp;gt;&lt;/i&gt;&lt;/span&gt;&lt;/font&gt;&lt;br style=&quot;font-size: 10px&quot;&gt;Salutation" style="swimlane;html=1;fontStyle=1;align=center;verticalAlign=top;childLayout=stackLayout;horizontal=1;startSize=44;horizontalStack=0;resizeParent=1;resizeLast=0;collapsible=1;marginBottom=0;swimlaneFillColor=#ffffff;rounded=0;shadow=0;comic=0;labelBackgroundColor=none;strokeWidth=1;fillColor=none;fontFamily=Verdana;fontSize=12" parent="1" vertex="1">
                    <mxGeometry x="570" y="290" width="130" height="110" as="geometry"/>
                </mxCell>
                <mxCell id="-D7Ul4uRxF27-zXFRVxn-21" value="Mr.&lt;br&gt;Ms.&lt;br&gt;Dr.&lt;br&gt;Mrs." style="text;html=1;strokeColor=none;fillColor=none;align=left;verticalAlign=top;spacingLeft=4;spacingRight=4;whiteSpace=wrap;overflow=hidden;rotatable=0;points=[[0,0.5],[1,0.5]];portConstraint=eastwest;" parent="-D7Ul4uRxF27-zXFRVxn-19" vertex="1">
                    <mxGeometry y="44" width="130" height="66" as="geometry"/>
                </mxCell>
                <mxCell id="-D7Ul4uRxF27-zXFRVxn-22" value="" style="endArrow=open;dashed=1;html=1;exitX=0.442;exitY=0.008;exitDx=0;exitDy=0;entryX=0.506;entryY=1.049;entryDx=0;entryDy=0;entryPerimeter=0;startArrow=none;startFill=0;endFill=0;strokeWidth=1;endSize=12;exitPerimeter=0;" parent="1" source="-D7Ul4uRxF27-zXFRVxn-16" target="-D7Ul4uRxF27-zXFRVxn-21" edge="1">
                    <mxGeometry width="50" height="50" relative="1" as="geometry">
                        <mxPoint x="280" y="470" as="sourcePoint"/>
                        <mxPoint x="330" y="420" as="targetPoint"/>
                    </mxGeometry>
                </mxCell>
                <mxCell id="-D7Ul4uRxF27-zXFRVxn-23" value="" style="endArrow=diamondThin;dashed=1;html=1;entryX=0;entryY=0;entryDx=0;entryDy=0;entryPerimeter=0;startArrow=none;startFill=0;endFill=0;strokeWidth=1;endSize=15;" parent="1" source="78961159f06e98e8-109" target="-D7Ul4uRxF27-zXFRVxn-17" edge="1">
                    <mxGeometry width="50" height="50" relative="1" as="geometry">
                        <mxPoint x="504.94000000000005" y="557.602" as="sourcePoint"/>
                        <mxPoint x="500" y="480.0039999999999" as="targetPoint"/>
                    </mxGeometry>
                </mxCell>
                <mxCell id="-D7Ul4uRxF27-zXFRVxn-24" value="&lt;font style=&quot;font-size: 12px&quot;&gt;Phone&lt;/font&gt;" style="swimlane;html=1;fontStyle=1;align=center;verticalAlign=top;childLayout=stackLayout;horizontal=1;startSize=30;horizontalStack=0;resizeParent=1;resizeLast=0;collapsible=1;marginBottom=0;swimlaneFillColor=#ffffff;rounded=0;shadow=0;comic=0;labelBackgroundColor=none;strokeWidth=1;fillColor=none;fontFamily=Verdana;fontSize=12" parent="1" vertex="1">
                    <mxGeometry x="570" y="610" width="160" height="104" as="geometry"/>
                </mxCell>
                <mxCell id="-D7Ul4uRxF27-zXFRVxn-25" value="+ countryCode: number&lt;br&gt;+ contactNumber: string&lt;br&gt;+ isPrimary: boolean&amp;nbsp;" style="text;html=1;strokeColor=none;fillColor=none;align=left;verticalAlign=top;spacingLeft=4;spacingRight=4;whiteSpace=wrap;overflow=hidden;rotatable=0;points=[[0,0.5],[1,0.5]];portConstraint=eastwest;" parent="-D7Ul4uRxF27-zXFRVxn-24" vertex="1">
                    <mxGeometry y="30" width="160" height="70" as="geometry"/>
                </mxCell>
                <mxCell id="-D7Ul4uRxF27-zXFRVxn-26" value="" style="endArrow=diamondThin;dashed=1;html=1;strokeWidth=1;entryX=-0.013;entryY=-0.055;entryDx=0;entryDy=0;entryPerimeter=0;exitX=1;exitY=0.5;exitDx=0;exitDy=0;startArrow=none;startFill=0;endFill=0;endSize=15;" parent="1" source="-D7Ul4uRxF27-zXFRVxn-5" target="-D7Ul4uRxF27-zXFRVxn-25" edge="1">
                    <mxGeometry width="50" height="50" relative="1" as="geometry">
                        <mxPoint x="280" y="590" as="sourcePoint"/>
                        <mxPoint x="330" y="540" as="targetPoint"/>
                    </mxGeometry>
                </mxCell>
                <mxCell id="-D7Ul4uRxF27-zXFRVxn-27" value="&lt;font style=&quot;font-size: 12px&quot;&gt;Address&lt;/font&gt;" style="swimlane;html=1;fontStyle=1;align=center;verticalAlign=top;childLayout=stackLayout;horizontal=1;startSize=30;horizontalStack=0;resizeParent=1;resizeLast=0;collapsible=1;marginBottom=0;swimlaneFillColor=#ffffff;rounded=0;shadow=0;comic=0;labelBackgroundColor=none;strokeWidth=1;fillColor=none;fontFamily=Verdana;fontSize=12" parent="1" vertex="1">
                    <mxGeometry x="570" y="740" width="160" height="160" as="geometry"/>
                </mxCell>
                <mxCell id="-D7Ul4uRxF27-zXFRVxn-28" value="+ line1:&amp;nbsp; string&lt;br&gt;+ line2?: string&lt;br&gt;+ line3?: string&lt;br&gt;+ city: string&lt;br&gt;+ state: string&lt;br&gt;+ country: string&lt;br&gt;+ landmark? :string" style="text;html=1;strokeColor=none;fillColor=none;align=left;verticalAlign=top;spacingLeft=4;spacingRight=4;whiteSpace=wrap;overflow=hidden;rotatable=0;points=[[0,0.5],[1,0.5]];portConstraint=eastwest;" parent="-D7Ul4uRxF27-zXFRVxn-27" vertex="1">
                    <mxGeometry y="30" width="160" height="130" as="geometry"/>
                </mxCell>
                <mxCell id="-D7Ul4uRxF27-zXFRVxn-29" value="" style="endArrow=diamondThin;dashed=1;html=1;strokeWidth=1;entryX=0;entryY=0.25;entryDx=0;entryDy=0;exitX=1;exitY=0.5;exitDx=0;exitDy=0;startArrow=none;startFill=0;endFill=0;endSize=15;" parent="1" source="-D7Ul4uRxF27-zXFRVxn-6" target="-D7Ul4uRxF27-zXFRVxn-27" edge="1">
                    <mxGeometry width="50" height="50" relative="1" as="geometry">
                        <mxPoint x="475" y="610" as="sourcePoint"/>
                        <mxPoint x="577.9200000000001" y="675.1500000000001" as="targetPoint"/>
                        <Array as="points">
                            <mxPoint x="500" y="780"/>
                        </Array>
                    </mxGeometry>
                </mxCell>
                <mxCell id="-D7Ul4uRxF27-zXFRVxn-30" value="1" style="text;html=1;strokeColor=none;fillColor=none;align=center;verticalAlign=middle;whiteSpace=wrap;rounded=0;" parent="1" vertex="1">
                    <mxGeometry x="459" y="610" width="40" height="20" as="geometry"/>
                </mxCell>
                <mxCell id="-D7Ul4uRxF27-zXFRVxn-34" value="1 ... n" style="text;html=1;strokeColor=none;fillColor=none;align=center;verticalAlign=middle;whiteSpace=wrap;rounded=0;" parent="1" vertex="1">
                    <mxGeometry x="510" y="760" width="40" height="20" as="geometry"/>
                </mxCell>
                <mxCell id="-D7Ul4uRxF27-zXFRVxn-35" value="1" style="text;html=1;strokeColor=none;fillColor=none;align=center;verticalAlign=middle;whiteSpace=wrap;rounded=0;" parent="1" vertex="1">
                    <mxGeometry x="460" y="556" width="40" height="20" as="geometry"/>
                </mxCell>
                <mxCell id="-D7Ul4uRxF27-zXFRVxn-36" value="1 ... n" style="text;html=1;strokeColor=none;fillColor=none;align=center;verticalAlign=middle;whiteSpace=wrap;rounded=0;" parent="1" vertex="1">
                    <mxGeometry x="531" y="599" width="40" height="20" as="geometry"/>
                </mxCell>
                <mxCell id="-D7Ul4uRxF27-zXFRVxn-37" value="1" style="text;html=1;strokeColor=none;fillColor=none;align=center;verticalAlign=middle;whiteSpace=wrap;rounded=0;" parent="1" vertex="1">
                    <mxGeometry x="454" y="494" width="40" height="20" as="geometry"/>
                </mxCell>
                <mxCell id="-D7Ul4uRxF27-zXFRVxn-38" value="1" style="text;html=1;strokeColor=none;fillColor=none;align=center;verticalAlign=middle;whiteSpace=wrap;rounded=0;" parent="1" vertex="1">
                    <mxGeometry x="531" y="490" width="40" height="20" as="geometry"/>
                </mxCell>
                <mxCell id="-D7Ul4uRxF27-zXFRVxn-39" value="&lt;h1&gt;Class Diagram : User Service&lt;/h1&gt;" style="text;html=1;strokeColor=none;fillColor=none;spacing=5;spacingTop=-20;whiteSpace=wrap;overflow=hidden;rounded=0;" parent="1" vertex="1">
                    <mxGeometry x="60" y="40" width="420" height="50" as="geometry"/>
                </mxCell>
            </root>
        </mxGraphModel>
    </diagram>
</mxfile>